<svg width="11" height="11" viewBox="0 0 11 11" fill="none" xmlns="http://www.w3.org/2000/svg">
<path d="M0.970758 11.0001C0.770193 11.0001 0.572713 10.9214 0.425375 10.774C0.207067 10.5557 0.139955 10.2287 0.254123 9.94169L1.79693 6.08467C1.83628 5.98824 1.89413 5.89953 1.96819 5.82625L7.36802 0.42641C7.66964 0.12479 8.15717 0.12479 8.45879 0.42641L10.773 2.74063C11.0746 3.04224 11.0746 3.52977 10.773 3.83139L7.68738 6.91701C7.38576 7.21863 6.89824 7.21863 6.59662 6.91701C6.295 6.61539 6.295 6.12787 6.59662 5.82625L9.13685 3.28601L7.9134 2.06256L3.17158 6.80516L2.35543 8.84398L4.39503 8.02861L4.50842 7.91444L4.2824 7.68842C3.98078 7.3868 3.98078 6.89927 4.2824 6.59765C4.58402 6.29603 5.07155 6.29603 5.37317 6.59765L6.14457 7.36906C6.44619 7.67068 6.44619 8.1582 6.14457 8.45982L5.37317 9.23123C5.29911 9.30528 5.21117 9.36314 5.11398 9.40248L1.25695 10.9453C1.16438 10.9823 1.06718 11.0001 0.970758 11.0001Z" fill="black"/>
</svg>
