<svg width="11" height="10" viewBox="0 0 11 10" fill="none" xmlns="http://www.w3.org/2000/svg">
<path d="M5.555 8.47411L5.5 8.52861L5.4395 8.47411C2.827 6.12534 1.1 4.57221 1.1 2.99728C1.1 1.90736 1.925 1.08992 3.025 1.08992C3.872 1.08992 4.697 1.63488 4.9885 2.37602H6.0115C6.303 1.63488 7.128 1.08992 7.975 1.08992C9.075 1.08992 9.9 1.90736 9.9 2.99728C9.9 4.57221 8.173 6.12534 5.555 8.47411ZM7.975 0C7.018 0 6.0995 0.441417 5.5 1.13351C4.9005 0.441417 3.982 0 3.025 0C1.331 0 0 1.31335 0 2.99728C0 5.05177 1.87 6.73569 4.7025 9.28065L5.5 10L6.2975 9.28065C9.13 6.73569 11 5.05177 11 2.99728C11 1.31335 9.669 0 7.975 0Z" fill="black"/>
</svg>
