<svg width="97" height="45" viewBox="0 0 97 45" fill="none" xmlns="http://www.w3.org/2000/svg">
<g filter="url(#filter0_d_69_3396)">
<path d="M78.8162 22.3909C78.7884 22.224 78.7884 22.0787 79.6197 21.8191C80.448 21.5626 82.463 20.8796 83.6869 20.2028C84.9107 19.5198 85.1147 19.424 85.4021 19.6156C85.6895 19.8041 85.6061 20.2677 85.6061 20.5953V23.9145C86.0542 23.179 87.5253 20.7313 88.6935 20.0112C89.6114 19.4425 89.9359 19.3962 90.5045 19.3838C91.1875 19.3714 92.8008 19.7918 92.8719 21.4946C92.9275 22.8266 91.9447 23.3613 91.3204 23.2778C90.8198 23.2068 90.4613 22.7463 90.1646 22.2827C89.8648 21.8129 89.3889 21.5348 88.9129 21.6955C88.437 21.8593 85.7699 23.59 85.6184 26.05C85.5103 27.8611 85.6184 33.5074 85.6184 33.5074C85.6184 34.3635 85.946 34.6942 86.3292 34.9229C86.7094 35.1547 88.1094 35.167 88.5019 35.2227C88.9005 35.2783 88.8851 35.371 88.8851 35.4946C88.8851 35.6152 88.8851 35.6739 88.5328 35.6739H79.1562C78.8564 35.6739 78.7359 35.6152 78.7359 35.439C78.7359 35.1948 79.1284 35.2381 79.4281 35.1948C79.7279 35.1547 81.3133 35.2845 81.7676 34.4871C82.1014 33.9648 82.0612 33.1242 82.0612 33.1242L82.0149 23.2068C82.0149 22.4063 81.7769 22.2889 81.5575 22.1622C81.335 22.0355 80.9672 21.9675 80.1915 22.2302C79.459 22.4712 78.9553 22.6968 78.8162 22.3909Z" fill="#3F3F3F"/>
<path d="M46.0235 22.3943C45.8968 22.1501 46.1317 21.9925 46.827 21.8102C47.6028 21.6031 49.3025 21.087 50.65 20.3237C51.9975 19.5634 52.2292 19.483 52.5136 19.5758C52.801 19.6716 52.7732 20.1753 52.7732 20.5833V33.415C52.7732 34.1351 52.869 34.4349 53.1935 34.7347C53.5211 35.0345 54.337 35.2106 55.397 35.2106C55.876 35.2106 56.0244 35.2663 56.0244 35.4702C56.0244 35.6742 55.876 35.6742 55.6844 35.6742H46.3789C46.0915 35.6742 46.0235 35.5506 46.0235 35.4301C46.0235 35.2786 46.1502 35.1828 46.5829 35.1828C46.9476 35.1828 48.6319 35.3095 49.0151 34.4349C49.1635 34.1011 49.2345 33.6345 49.2345 33.1987V23.0186C49.2345 22.246 48.635 21.9029 47.9427 22.0698C47.133 22.2552 46.1904 22.7126 46.0235 22.3943Z" fill="#3F3F3F"/>
<path d="M50.7675 13.5184C52.0315 13.5184 53.0575 12.4924 53.0575 11.2314C53.0575 9.96742 52.0315 8.94446 50.7675 8.94446C49.5065 8.94446 48.4836 9.96742 48.4836 11.2314C48.4836 12.4924 49.5065 13.5184 50.7675 13.5184Z" fill="#3F3F3F"/>
<path d="M61.9518 28.0715C62.4123 32.2344 64.8909 35.4732 67.9628 34.9293C71.041 34.3854 72.5832 31.4463 72.2123 26.7395C71.8322 21.9523 69.4648 19.5633 66.2785 19.8507C62.984 20.1505 61.4882 23.9055 61.9518 28.0715ZM64.999 19.1183C68.9642 18.3765 74.6043 19.2512 75.8869 25.4569C77.1664 31.6626 72.8953 34.9664 69.1898 35.773C65.5677 36.558 59.4176 35.9986 58.305 29.3231C57.3037 23.3306 61.652 19.7425 64.999 19.1183Z" fill="#3F3F3F"/>
<path d="M18.0539 34.6697H20.3532C28.9078 34.6697 31.204 33.8754 34.2142 29.8763C37.2243 25.8772 37.5828 20.135 37.5828 18.1942C37.5828 16.2534 37.0667 11.3827 34.0565 7.26308C31.0433 3.14343 26.015 2.07412 21.6172 2.07412H18.0353C17.1855 2.07412 17.1422 2.45116 17.1422 3.04454V33.9156C17.1422 34.5893 17.3802 34.6697 18.0539 34.6697ZM4.12497 35.3929C4.12497 35.0807 4.52983 35.0282 4.90687 35.0158C9.26139 34.8922 10.0742 34.7408 10.5718 34.2247C10.8437 33.9403 11.2424 33.7086 11.2424 31.6904V3.92533C11.2424 1.43129 8.21371 1.82688 6.07508 1.60745C5.32409 1.53328 5.26228 1.43129 5.26228 1.21187C5.26228 0.995529 5.40444 0.890452 5.79693 0.875H23.3418C42.6327 0.875 43.6186 14.977 43.6186 18.7381C43.6186 26.8198 38.2751 35.7081 27.106 35.7081H4.68744C4.41239 35.7081 4.12497 35.671 4.12497 35.3929Z" fill="#3F3F3F"/>
</g>
<defs>
<filter id="filter0_d_69_3396" x="0.124969" y="0.875" width="96.7491" height="43.1705" filterUnits="userSpaceOnUse" color-interpolation-filters="sRGB">
<feFlood flood-opacity="0" result="BackgroundImageFix"/>
<feColorMatrix in="SourceAlpha" type="matrix" values="0 0 0 0 0 0 0 0 0 0 0 0 0 0 0 0 0 0 127 0" result="hardAlpha"/>
<feOffset dy="4"/>
<feGaussianBlur stdDeviation="2"/>
<feComposite in2="hardAlpha" operator="out"/>
<feColorMatrix type="matrix" values="0 0 0 0 0 0 0 0 0 0 0 0 0 0 0 0 0 0 0.25 0"/>
<feBlend mode="normal" in2="BackgroundImageFix" result="effect1_dropShadow_69_3396"/>
<feBlend mode="normal" in="SourceGraphic" in2="effect1_dropShadow_69_3396" result="shape"/>
</filter>
</defs>
</svg>
